# xmcd
#
# Track frame offsets:
#	150
#	17162
#	41697
#	63827
#	84208
#	109233
#	129475
#	155508
#	167336
#	188107
#	206357
#	218074
#	241169
#	258667
#	274603
#	289283
#	308940
#	328820
#
# Disc length: 4712
#
# Revision: 2
# Processed by: cddbd v1.5.1PL0 Copyright (c) Steve Scherf et al.
# Submitted via: Click'N Design 3D 4.8
# Normalized: r0:DSWAP,DSETVAR1,TDELIM( - ),TSWAP
#
DISCID=fc126612
DTITLE=Various Artist - dsjfdsa
DYEAR=2003
DGENRE=Alternative
TTITLE0=Bon Jovi - It's My Life
TTITLE1=Great White - Once Bitten, Twice Shy
TTITLE2=Def Leppard - Pour Some Sugar On Me
TTITLE3=Metallica - Until It Sleeps
TTITLE4=Eminem - Lose Yourself
TTITLE5=Kid Rock - Bawitdaba
TTITLE6=Tesla - Try So Hard
TTITLE7=Linkin Park - One Step Closer
TTITLE8=Creed - With Arms Wide Open
TTITLE9=Motley Crue - Home Sweet Home
TTITLE10=Green Day - Time Of Your Life
TTITLE11=The Who - Who Are You
TTITLE12=Aerosmith - Just Push Play
TTITLE13=AC/DC - You Shook Me All Night Long
TTITLE14=The Police - Roxanne
TTITLE15=Lenny Kravitz - American Woman
TTITLE16=Soul Asylum - Runaway Train
TTITLE17=Poison - Something To Believe In
EXTD=
EXTT0=
EXTT1=
EXTT2=
EXTT3=
EXTT4=
EXTT5=
EXTT6=
EXTT7=
EXTT8=
EXTT9=
EXTT10=
EXTT11=
EXTT12=
EXTT13=
EXTT14=
EXTT15=
EXTT16=
EXTT17=
PLAYORDER=
